<mxfile host="app.diagrams.net" modified="2023-12-01T09:36:55.671Z" agent="Mozilla/5.0 (Macintosh; Intel Mac OS X 10.15; rv:120.0) Gecko/20100101 Firefox/120.0" version="22.1.5" etag="usUJ7EUp2nIog8KPLKUE" type="github">
  <diagram name="Page-1" id="Zdn-j1HeDBxQTxcg6D17">
    <mxGraphModel>
      <root>
        <mxCell id="0" />
        <mxCell id="1" parent="0" />
      </root>
    </mxGraphModel>
  </diagram>
</mxfile>
